<svg width="40" height="40" viewBox="0 0 40 40" fill="none" xmlns="http://www.w3.org/2000/svg">
<circle cx="20" cy="20" r="20" fill="#F4F4F4"/>
<path d="M26.6666 15.8333H13.3333C12.4128 15.8333 11.6666 16.5795 11.6666 17.5V25.8333C11.6666 26.7538 12.4128 27.5 13.3333 27.5H26.6666C27.5871 27.5 28.3333 26.7538 28.3333 25.8333V17.5C28.3333 16.5795 27.5871 15.8333 26.6666 15.8333Z" stroke="black" stroke-width="1.5" stroke-linecap="round" stroke-linejoin="round"/>
<path d="M23.3333 27.5V14.1667C23.3333 13.7246 23.1577 13.3007 22.8451 12.9882C22.5326 12.6756 22.1087 12.5 21.6666 12.5H18.3333C17.8913 12.5 17.4673 12.6756 17.1548 12.9882C16.8422 13.3007 16.6666 13.7246 16.6666 14.1667V27.5" stroke="black" stroke-width="1.5" stroke-linecap="round" stroke-linejoin="round"/>
</svg>
