<svg width="50" height="50" viewBox="0 0 50 50" fill="none" xmlns="http://www.w3.org/2000/svg">
<circle cx="25" cy="25" r="25" fill="#F5F5F5"/>
<path d="M24 17H17C16.4696 17 15.9609 17.2107 15.5858 17.5858C15.2107 17.9609 15 18.4696 15 19V33C15 33.5304 15.2107 34.0391 15.5858 34.4142C15.9609 34.7893 16.4696 35 17 35H31C31.5304 35 32.0391 34.7893 32.4142 34.4142C32.7893 34.0391 33 33.5304 33 33V26" stroke="black" stroke-width="2" stroke-linecap="round" stroke-linejoin="round"/>
<path d="M31.5 15.5002C31.8978 15.1024 32.4374 14.8789 33 14.8789C33.5626 14.8789 34.1022 15.1024 34.5 15.5002C34.8978 15.8981 35.1213 16.4376 35.1213 17.0002C35.1213 17.5628 34.8978 18.1024 34.5 18.5002L25 28.0002L21 29.0002L22 25.0002L31.5 15.5002Z" stroke="black" stroke-width="2" stroke-linecap="round" stroke-linejoin="round"/>
</svg>
