<svg width="318" height="120" viewBox="0 0 318 120" fill="none" xmlns="http://www.w3.org/2000/svg">
<g clip-path="url(#clip0_3699_33)">
<path d="M7.59933 0.233776C5.6508 0.545465 0.389774 2.02598 0.194921 2.29871C0.11698 2.45456 0.311833 7.55845 0.623597 13.6753C1.05227 21.6234 1.2861 36.6234 1.40301 67.013C1.63683 113.026 1.55889 111.507 3.81919 114.896C7.75522 120.74 17.1082 121.052 22.7199 115.597C23.6162 114.701 27.3964 109.519 31.1376 104.104L37.9185 94.2078L40.2957 98.8442C44.2317 106.403 50.2721 114.662 53.7795 117.312C58.3001 120.701 65.7435 120 69.4067 115.792C70.6537 114.39 72.8751 109.987 72.8751 108.935C72.8751 108.662 71.1604 107.026 69.0949 105.351C61.7295 99.4675 52.3376 89.6494 47.739 82.987L46.7258 81.5065L58.2611 64.7143C64.5743 55.4805 69.8743 47.6883 69.9912 47.4156C70.264 46.6753 65.8214 42.5844 63.639 41.5714C62.1582 40.9091 61.028 40.7143 58.0662 40.7143C54.7927 40.7143 54.0912 40.8312 52.1427 41.8052C47.778 43.9481 45.3229 47.8052 41.7376 58.1688C40.2957 62.2597 38.6199 66.5844 38.0354 67.7533C36.9052 69.9351 20.4207 96.5065 19.7582 97.2078C19.5243 97.4416 19.4854 96.1169 19.6412 93.5065C20.4207 80.5714 22.0964 28.5585 22.2523 11.6883C22.3302 5.53248 22.1354 4.63637 19.992 2.68832C17.9655 0.779231 16.4457 0.272737 12.4707 0.155854C10.4442 0.116893 8.26183 0.155854 7.59933 0.233776Z" fill="#7AE2A0"/>
<path d="M83.2023 1.67533C78.9934 3.07792 76.4603 5.64935 75.4081 9.54546C73.9273 14.961 75.1743 21.1948 78.4868 24.8571C84.3324 31.2857 96.1795 28.987 100.115 20.6494C101.012 18.7403 101.129 18.039 101.129 14.026C101.129 9.89611 101.051 9.38961 100.077 7.55844C98.7905 5.1039 96.4133 3 93.9581 2.14286C91.542 1.28572 85.2287 1.01299 83.2023 1.67533Z" fill="#7AE2A0"/>
<path d="M302.412 40.3636C301.866 40.4416 300.152 40.7143 298.554 40.9481C296.956 41.1818 295.436 41.4545 295.241 41.5325C294.968 41.6494 294.852 43.5584 294.929 47.2208L295.085 52.7533L291.227 49.052C284.875 43.013 280.51 40.987 273.145 40.6364C270.768 40.5195 267.884 40.6364 266.403 40.8701C256.388 42.6234 247.97 49.5584 243.021 60.039C238.11 70.4805 236.824 85.3247 239.864 97.1688C242.67 108.312 249.646 115.753 259.895 118.519C264.104 119.688 273.807 119.766 277.393 118.675C283.589 116.805 288.577 111.779 293.721 102.156L295.67 98.5325L295.943 100.948C296.06 102.273 296.177 105.39 296.177 107.922C296.177 115.597 297.502 118.091 302.061 118.792C305.685 119.377 312.077 118.13 316.168 116.065C318 115.13 318.078 116.143 315.077 102.468C312.739 91.8701 311.96 85.5974 312.349 80.6494C312.466 78.8182 313.441 73.052 314.493 67.7922C315.545 62.5325 316.558 56.6494 316.753 54.7013C317.688 45.1169 314.61 40.8312 306.465 40.3636C304.789 40.2857 302.957 40.2468 302.412 40.3636ZM283.082 56.2987C285.693 57 290.409 59.3766 293.176 61.3636L295.007 62.7273V72.974C295.007 82.7922 294.968 83.3766 294.072 85.987C289.98 97.987 282.888 104.416 273.768 104.416C270.963 104.416 270.261 104.26 268.157 103.208C264.065 101.143 261.532 97.013 260.09 90C259.271 85.8312 259.505 75.1559 260.518 71.2987C262.623 63.3896 266.91 58.2078 272.989 56.2597C275.171 55.5584 280.354 55.5974 283.082 56.2987Z" fill="#7AE2A0"/>
<path d="M83.787 40.7922C83.2414 40.8701 81.4877 41.2987 79.8509 41.7273L76.8892 42.5065L77.0061 44.1429C77.6686 51.0779 78.0193 64.7143 78.1752 86.6883C78.2921 101.844 78.5259 112.909 78.7597 113.649C79.6561 116.532 82.1112 118.208 86.2421 118.792C89.3208 119.221 93.9583 118.753 97.2708 117.662C99.7259 116.844 99.7649 116.805 99.7649 115.442C99.7649 114.701 99.57 108.429 99.3362 101.532C98.9855 92.026 99.0245 83.961 99.3752 67.7922C99.9208 43.987 100.038 45.2727 97.1539 42.8961C95.0884 41.1818 92.5164 40.5195 88.3075 40.5584C86.359 40.5974 84.3325 40.7143 83.787 40.7922Z" fill="#7AE2A0"/>
<path d="M151.985 41.1429C144.854 43.013 139.164 48.0779 133.007 58.0909C131.682 60.2727 130.513 62.1039 130.435 62.1818C130.357 62.2597 130.357 60.1169 130.474 57.3896C130.668 51.7403 130.123 46.2078 129.149 44.1818C127.473 40.6364 122.29 40.0909 113.327 42.5065C110.56 43.2468 110.287 43.4416 110.287 44.2987C110.287 44.8052 111.144 48.6234 112.196 52.7143C115.119 64.0909 115.548 71.026 113.95 81.2338C111.144 99.1169 110.716 103.753 111.417 109.481C112.235 116.143 113.989 118.208 119.484 118.792C122.68 119.182 127.668 118.831 130.552 118.052L132.227 117.584L131.916 97.3636L131.643 77.1429L133.669 73.3636C139.632 62.1818 144.308 57.7013 150.505 57.3506C155.96 57.039 158.922 59.3766 160.13 64.987C160.364 66.1169 160.676 71.2597 160.793 76.4805C161.027 84.3507 160.91 87.7403 160.169 97.052C159.468 106.364 159.39 108.662 159.741 110.922C160.949 117.857 164.729 120.195 173.224 119.26C175.368 119.026 178.018 118.597 179.07 118.286C180.746 117.857 181.018 117.662 180.98 116.844C180.941 116.338 180.707 112.325 180.473 107.922C180.2 103.519 179.966 95.8052 179.927 90.7792C179.849 80.6494 179.966 79.8312 182.655 73.0909C185.422 66.1169 189.241 61.2468 193.801 58.7922C195.749 57.7403 196.724 57.5065 199.14 57.3896C202.803 57.1948 204.985 58.1688 206.739 60.8182C208.882 63.9351 208.999 65.4545 208.727 82.987C208.22 114.623 208.142 111.701 209.389 114.195C211.26 118.052 214.767 119.571 220.652 119.065C223.263 118.831 230.511 117.273 230.862 116.844C230.901 116.766 230.706 114.857 230.433 112.597C230.043 109.714 229.771 101.299 229.576 84.1558C229.303 60.9351 229.225 59.6493 228.446 56.6883C226.302 48.8182 222.288 44.0649 215.663 41.6104C212.429 40.4416 202.803 40.3247 199.53 41.4545C191.696 44.1429 185.968 49.6364 180.005 60.1948L178.68 62.5325L178.446 58.5974C178.174 53.961 177.394 51.4286 175.368 48.3896C172.835 44.6493 168.353 41.8831 163.131 40.8701C160.364 40.3636 154.441 40.4805 151.985 41.1429Z" fill="#7AE2A0"/>
</g>
<defs>
<clipPath id="clip0_3699_33">
<rect width="318" height="120" fill="white"/>
</clipPath>
</defs>
</svg>
