<svg width="18" height="18" viewBox="0 0 18 18" fill="none" xmlns="http://www.w3.org/2000/svg">
<g id="dribbble-icon">
<g clip-path="url(#clip0_1550_3113)">
<path id="Vector" d="M9 16.5C13.1421 16.5 16.5 13.1421 16.5 9C16.5 4.85786 13.1421 1.5 9 1.5C4.85786 1.5 1.5 4.85786 1.5 9C1.5 13.1421 4.85786 16.5 9 16.5Z" stroke="#9F9F9F" stroke-width="2" stroke-linecap="round" stroke-linejoin="round"/>
<path id="Vector_2" d="M6.42 2.0625C9.6975 6.585 10.935 9.1275 12.4425 15.3525M14.3475 3.8175C11.5575 7.08 7.6425 8.0625 1.6875 8.205M16.3125 9.63C13.6875 8.9325 11.34 9.015 9.6075 9.63C7.6725 10.32 5.85 11.775 4.0275 14.37" stroke="#9F9F9F" stroke-width="2" stroke-linecap="round" stroke-linejoin="round"/>
</g>
</g>
<defs>
<clipPath id="clip0_1550_3113">
<rect width="18" height="18" rx="4" fill="white"/>
</clipPath>
</defs>
</svg>
