<svg width="16" height="16" viewBox="0 0 16 16" fill="none" xmlns="http://www.w3.org/2000/svg">
<g id="edit" clip-path="url(#clip0_2792_3052)">
<path id="Vector" d="M11.3334 2.00001C11.5085 1.82491 11.7163 1.68602 11.9451 1.59126C12.1739 1.4965 12.4191 1.44772 12.6667 1.44772C12.9143 1.44772 13.1595 1.4965 13.3883 1.59126C13.6171 1.68602 13.8249 1.82491 14 2.00001C14.1751 2.1751 14.314 2.38297 14.4088 2.61175C14.5036 2.84052 14.5523 3.08572 14.5523 3.33334C14.5523 3.58096 14.5036 3.82616 14.4088 4.05494C14.314 4.28371 14.1751 4.49158 14 4.66668L5.00004 13.6667L1.33337 14.6667L2.33337 11L11.3334 2.00001Z" stroke="black" stroke-width="1.5" stroke-linecap="round" stroke-linejoin="round"/>
</g>
<defs>
<clipPath id="clip0_2792_3052">
<rect width="16" height="16" fill="white"/>
</clipPath>
</defs>
</svg>
