<svg width="15" height="15" viewBox="0 0 15 15" fill="none" xmlns="http://www.w3.org/2000/svg">
<path d="M7.11806 0.00695515C6.75588 0.0197191 6.58836 0.0372686 6.21661 0.102684C5.63107 0.204795 5.2657 0.310097 4.60517 0.56697C4.43126 0.635575 3.8872 0.91319 3.61916 1.07274C2.8294 1.54341 2.08111 2.21511 1.50834 2.97296C0.956299 3.7021 0.501585 4.62269 0.260667 5.5018C0.233544 5.59753 0.208016 5.70283 0.201634 5.73315C0.195253 5.76346 0.177702 5.84802 0.160152 5.92142C0.112287 6.12404 0.0372996 6.62343 0.0181538 6.8819C-0.00577847 7.18025 -0.00577847 7.83281 0.0165583 8.1184C0.0692093 8.755 0.241522 9.53359 0.45053 10.0808C0.58136 10.4223 0.622842 10.518 0.768031 10.8148C1.40782 12.1135 2.34118 13.1314 3.61597 13.9196C4.05632 14.1908 4.73281 14.4955 5.25932 14.6599C5.49545 14.7333 5.87837 14.829 6.01717 14.8513C6.05706 14.8577 6.15758 14.8753 6.24054 14.8912C6.56762 14.9566 7.33026 15.0109 7.70839 14.9981C8.03387 14.9854 8.41359 14.9487 8.65292 14.9072C8.75183 14.8896 8.87947 14.8673 8.93691 14.8577C8.99435 14.8497 9.15549 14.813 9.29589 14.7795C11.4195 14.2578 13.232 12.8123 14.2036 10.8626C14.3408 10.5866 14.3695 10.526 14.4557 10.3122C14.7445 9.59422 14.9216 8.83956 14.9838 8.05617C15.0045 7.79132 15.0045 7.23929 14.9838 6.95369C14.9503 6.51813 14.8498 5.91822 14.7509 5.56562C14.6408 5.17473 14.612 5.09017 14.4828 4.75193C14.1765 3.95259 13.6723 3.13889 13.0804 2.48634C12.4071 1.74444 11.7083 1.21474 10.8212 0.771192C10.2963 0.509533 9.8607 0.35158 9.26398 0.20639C8.57633 0.0372686 7.92697 -0.0217638 7.11806 0.00695515ZM10.1176 4.08023V4.9035L10.0825 4.90988C10.0617 4.91466 9.71232 4.92105 9.30387 4.92424C8.45348 4.93221 8.46624 4.93062 8.38328 5.05347C8.27957 5.20504 8.27638 5.23057 8.27 5.89589L8.26521 6.49898H9.19059H10.1176V7.28077V8.06256H9.19219H8.26681V10.3601V12.6575L7.37015 12.6544L6.47189 12.6496L6.4687 10.3601L6.46391 8.07053L5.67415 8.06575L4.88438 8.06256V7.28077V6.49898H5.67095H6.45912L6.4687 5.90386C6.47667 5.52573 6.48784 5.26089 6.5022 5.17473C6.62186 4.42804 7.09891 3.7707 7.74668 3.45958C8.11364 3.28408 8.23809 3.26812 9.38046 3.26334L10.1176 3.25855V4.08023Z" fill="white"/>
</svg>
