<svg width="14" height="14" viewBox="0 0 14 14" fill="none" xmlns="http://www.w3.org/2000/svg">
<path d="M11.6667 4.08331H2.33335C1.68902 4.08331 1.16669 4.60565 1.16669 5.24998V11.0833C1.16669 11.7276 1.68902 12.25 2.33335 12.25H11.6667C12.311 12.25 12.8334 11.7276 12.8334 11.0833V5.24998C12.8334 4.60565 12.311 4.08331 11.6667 4.08331Z" stroke="black" stroke-linecap="round" stroke-linejoin="round"/>
<path d="M9.33335 12.25V2.91667C9.33335 2.60725 9.21044 2.3105 8.99164 2.09171C8.77285 1.87292 8.47611 1.75 8.16669 1.75H5.83335C5.52393 1.75 5.22719 1.87292 5.0084 2.09171C4.7896 2.3105 4.66669 2.60725 4.66669 2.91667V12.25" stroke="black" stroke-linecap="round" stroke-linejoin="round"/>
</svg>
