<svg width="40" height="40" viewBox="0 0 40 40" fill="none" xmlns="http://www.w3.org/2000/svg">
<circle cx="20" cy="20" r="20" fill="#38CC96" fill-opacity="0.12"/>
<path d="M20 30C25.5228 30 30 25.5228 30 20C30 14.4772 25.5228 10 20 10C14.4772 10 10 14.4772 10 20C10 25.5228 14.4772 30 20 30Z" stroke="#38CC96" stroke-width="2" stroke-linecap="round" stroke-linejoin="round"/>
<path d="M10 20H30" stroke="#38CC96" stroke-width="2" stroke-linecap="round" stroke-linejoin="round"/>
<path d="M20 10C22.5013 12.7384 23.9228 16.292 24 20C23.9228 23.708 22.5013 27.2616 20 30C17.4987 27.2616 16.0772 23.708 16 20C16.0772 16.292 17.4987 12.7384 20 10Z" stroke="#38CC96" stroke-width="2" stroke-linecap="round" stroke-linejoin="round"/>
</svg>
