<svg width="20" height="20" viewBox="0 0 20 20" fill="none" xmlns="http://www.w3.org/2000/svg">
<g clip-path="url(#clip0_2973_2581)">
<path d="M0 3.49609V6.99219H4.49219H8.98438V7.98828V8.98438H7.5H6.01562V10V11.0156H7.5H8.98438V10V8.98438H10H11.0156V10V11.0156H11.5039H11.9922V12.0117V13.0078H10.9961H10V14.5117V16.0156L8.50781 16.0078L7.01172 15.9961L7 14.5L6.99219 13.0078H3.49609H0V16.5039V20H3.49609H6.99219V19.0039V18.0078H8.49609H10V19.0039V20H11.9922H13.9844V19.0039V18.0078H15H16.0156V19.0039V20H17.5H18.9844V19.0039V18.0078H18.4961H18.0078V17.0117V16.0156H19.0039H20V15V13.9844H19.0039H18.0078L18 11.4922L17.9883 9.00391L14.5039 8.99219L11.0156 8.98438L11.0078 7.99609L10.9961 7.01172L9.99219 7L8.98438 6.99219V5.48828V3.98438H10H11.0156V1.99219V0H10H8.98438V1.99219V3.98438H7.98828H6.99219V1.99219V0H3.49609H0V3.49609ZM5 3.49609V5H3.49609H1.99219V3.49609V1.99219H3.49609H5V3.49609ZM16.0156 12.5V13.9844H17.0117H18.0078V15V16.0156H15H11.9922V17.0117V18.0078H10.9961H10V17.0117V16.0156H10.9961H11.9922V14.5117V13.0078H12.9883H13.9844V12.0117V11.0156H15H16.0156V12.5ZM5 16.5039V18.0078H3.49609H1.99219V16.5039V15H3.49609H5V16.5039Z" fill="#7AE2A0"/>
<path d="M13.0078 3.49609V6.99219H16.5039H20V3.49609V0H16.5039H13.0078V3.49609ZM18.0078 3.49609V5H16.5039H15V3.49609V1.99219H16.5039H18.0078V3.49609Z" fill="#7AE2A0"/>
<path d="M0 10V11.0156H1.99219H3.98438V10V8.98438H1.99219H0V10Z" fill="#7AE2A0"/>
</g>
<defs>
<clipPath id="clip0_2973_2581">
<rect width="20" height="20" fill="white"/>
</clipPath>
</defs>
</svg>
