<svg width="14" height="14" viewBox="0 0 14 14" fill="none" xmlns="http://www.w3.org/2000/svg">
<g clip-path="url(#clip0_502_2714)">
<path d="M2.69324 0.995996C2.50457 1.04521 2.428 1.08076 2.26121 1.18467C2.05613 1.31865 1.87566 1.51553 1.76355 1.72881C1.58582 2.0624 1.58582 2.06514 1.58582 4.28545C1.58582 5.70732 1.57761 6.28975 1.55574 6.28975C1.53933 6.28975 1.43269 6.32803 1.31785 6.37178C0.85027 6.56045 0.45652 6.92139 0.235035 7.36162C0.00808215 7.81826 0.0162853 7.73076 0.00534777 9.60654C-0.00285535 11.2526 -0.00285535 11.2718 0.0545665 11.3894C0.0983165 11.4769 0.144801 11.5233 0.229567 11.5644C0.336207 11.6163 0.396363 11.6218 0.965113 11.6218H1.58308L1.59129 12.1933C1.59949 12.7237 1.60496 12.7729 1.65691 12.844C1.85379 13.1093 2.1655 13.1093 2.36238 12.844C2.41433 12.7729 2.4198 12.7237 2.428 12.1933L2.43621 11.6218H6.99988H11.5635L11.5718 12.1933C11.58 12.7237 11.5854 12.7729 11.6374 12.844C11.8343 13.1093 12.146 13.1093 12.3428 12.844C12.3948 12.7729 12.4003 12.7237 12.4085 12.1933L12.4167 11.6218H13.0346C13.6034 11.6218 13.6636 11.6163 13.7702 11.5644C13.855 11.5233 13.9014 11.4769 13.9452 11.3894C14.0026 11.2718 14.0026 11.2526 13.9944 9.60654C13.9835 7.73076 13.9917 7.81826 13.7647 7.36162C13.5432 6.92139 13.1495 6.56045 12.6819 6.37178C12.5671 6.32803 12.4604 6.28975 12.444 6.28975C12.4221 6.28975 12.4139 5.70732 12.4139 4.28545C12.4139 2.06514 12.4139 2.0624 12.2362 1.72881C12.0721 1.41709 11.7632 1.15185 11.4159 1.02334C11.2846 0.97412 11.096 0.971386 7.05457 0.965918C3.69128 0.963182 2.80261 0.968652 2.69324 0.995996ZM11.096 1.8081C11.2628 1.84365 11.4432 1.98857 11.5143 2.14443C11.5608 2.25107 11.5663 2.37139 11.5663 4.24443V6.23506H10.8854H10.2046L10.1909 5.73467C10.1827 5.32998 10.169 5.19873 10.1198 5.03193C9.92019 4.35928 9.41433 3.85615 8.73621 3.65928C8.52019 3.59639 8.50379 3.59639 6.99988 3.59639C5.49597 3.59639 5.47957 3.59639 5.26355 3.65928C4.58543 3.85615 4.07957 4.35928 3.87996 5.03193C3.83074 5.19873 3.81707 5.32998 3.80886 5.73467L3.79519 6.23506H3.11433H2.43347V4.24443C2.43347 2.37139 2.43894 2.25107 2.48543 2.14443C2.55105 2.00224 2.73972 1.84092 2.88191 1.8081C3.04597 1.77256 10.9237 1.76982 11.096 1.8081ZM8.55027 4.47959C8.91394 4.59443 9.17371 4.84873 9.29949 5.21787C9.34324 5.34092 9.35144 5.44756 9.35144 5.80303V6.23506H6.99988H4.64832V5.80303C4.64832 5.44756 4.65652 5.34092 4.70027 5.21787C4.82605 4.85146 5.08308 4.59717 5.44129 4.48232C5.578 4.43857 5.73113 4.4331 6.99168 4.4331C8.27136 4.43037 8.40261 4.43584 8.55027 4.47959ZM12.1241 7.08271C12.5698 7.15654 12.9471 7.47646 13.0975 7.9167C13.1495 8.06709 13.1522 8.14639 13.1522 9.42607V10.7741H6.99988H0.847535V9.42607C0.847535 8.14639 0.85027 8.06709 0.902223 7.9167C1.04988 7.49014 1.42996 7.15381 1.85105 7.08271C2.04246 7.05264 11.9272 7.0499 12.1241 7.08271Z" fill="black"/>
</g>
<defs>
<clipPath id="clip0_502_2714">
<rect width="14" height="14" fill="white"/>
</clipPath>
</defs>
</svg>
