<svg xmlns="http://www.w3.org/2000/svg" width="20" height="20" viewBox="0 0 20 20" fill="none">
<g clip-path="url(#clip0_2973_2574)">
<path d="M16.6667 7.5H9.16667C8.24619 7.5 7.5 8.24619 7.5 9.16667V16.6667C7.5 17.5871 8.24619 18.3333 9.16667 18.3333H16.6667C17.5871 18.3333 18.3333 17.5871 18.3333 16.6667V9.16667C18.3333 8.24619 17.5871 7.5 16.6667 7.5Z" stroke="#7AE2A0" stroke-width="2" stroke-linecap="round" stroke-linejoin="round"/>
<path d="M4.16663 12.5001H3.33329C2.89127 12.5001 2.46734 12.3245 2.15478 12.0119C1.84222 11.6994 1.66663 11.2754 1.66663 10.8334V3.33341C1.66663 2.89139 1.84222 2.46746 2.15478 2.1549C2.46734 1.84234 2.89127 1.66675 3.33329 1.66675H10.8333C11.2753 1.66675 11.6992 1.84234 12.0118 2.1549C12.3244 2.46746 12.5 2.89139 12.5 3.33341V4.16675" stroke="#7AE2A0" stroke-width="2" stroke-linecap="round" stroke-linejoin="round"/>
</g>
<defs>
<clipPath id="clip0_2973_2574">
<rect width="20" height="20" fill="white"/>
</clipPath>
</defs>
</svg>