<svg width="17" height="16" viewBox="0 0 17 16" fill="none" xmlns="http://www.w3.org/2000/svg">
<g clip-path="url(#clip0_3826_2616)">
<path d="M13.9313 3.07333C13.5917 2.73267 13.1885 2.46243 12.7447 2.27805C12.301 2.09368 11.8253 1.99878 11.345 1.99878C10.8646 1.99878 10.3889 2.09368 9.94517 2.27805C9.50139 2.46243 9.0982 2.73267 8.75861 3.07333L8.05385 3.78L7.34909 3.07333C6.66315 2.38553 5.73281 1.99914 4.76274 1.99914C3.79268 1.99914 2.86234 2.38553 2.1764 3.07333C1.49046 3.76112 1.1051 4.69397 1.1051 5.66666C1.1051 6.63935 1.49046 7.5722 2.1764 8.26L2.88116 8.96666L8.05385 14.1533L13.2265 8.96666L13.9313 8.26C14.271 7.91949 14.5406 7.51521 14.7244 7.07023C14.9083 6.62526 15.003 6.14832 15.003 5.66666C15.003 5.185 14.9083 4.70807 14.7244 4.26309C14.5406 3.81812 14.271 3.41383 13.9313 3.07333Z" stroke="black" stroke-width="2" stroke-linecap="round" stroke-linejoin="round"/>
</g>
<defs>
<clipPath id="clip0_3826_2616">
<rect width="15.9569" height="16" fill="white" transform="translate(0.0754395)"/>
</clipPath>
</defs>
</svg>
