<svg width="15" height="12" viewBox="0 0 15 12" fill="none" xmlns="http://www.w3.org/2000/svg">
<path d="M12.7295 1.88407C12.437 1.6038 12.0898 1.38146 11.7077 1.22977C11.3256 1.07808 10.916 1 10.5023 1C10.0887 1 9.67909 1.07808 9.29695 1.22977C8.91481 1.38146 8.56761 1.6038 8.27519 1.88407L7.66831 2.46547L7.06142 1.88407C6.47075 1.3182 5.66962 1.00029 4.83428 1.00029C3.99894 1.00029 3.19782 1.3182 2.60714 1.88407C2.01647 2.44995 1.68463 3.21744 1.68463 4.0177C1.68463 4.81797 2.01647 5.58546 2.60714 6.15134L3.21402 6.73274L7.66831 11L12.1226 6.73274L12.7295 6.15134C13.022 5.87119 13.2541 5.53857 13.4124 5.17247C13.5708 4.80638 13.6523 4.41398 13.6523 4.0177C13.6523 3.62143 13.5708 3.22903 13.4124 2.86293C13.2541 2.49684 13.022 2.16422 12.7295 1.88407Z" fill="#D92F58" stroke="#D92F58" stroke-width="2" stroke-linecap="round" stroke-linejoin="round"/>
</svg>
