<svg width="14" height="14" viewBox="0 0 14 14" fill="none" xmlns="http://www.w3.org/2000/svg">
<g clip-path="url(#clip0_502_2708)">
<path d="M3.88291 0.0191412C2.9833 0.169532 2.28604 0.81211 2.07822 1.67891C2.02627 1.88945 2.02354 2.0207 2.02354 4.68125V7.46484H1.07744H0.131348L0.14502 9.05625C0.158691 10.7543 0.161426 10.8008 0.303613 11.2383C0.385645 11.4898 0.607129 11.9137 0.765723 12.1215C1.13486 12.6109 1.67627 13.0102 2.21768 13.1934C2.60596 13.3273 2.90674 13.3711 3.41533 13.3711H3.88291V13.6855V14H4.19736H4.51182V13.6855V13.3711L6.99463 13.3766L9.47471 13.3848L9.48291 13.691L9.49111 14H9.78916H10.0872L10.0954 13.691L10.1036 13.3848L10.6368 13.3684C11.2192 13.352 11.4544 13.3137 11.8071 13.177C12.8735 12.7695 13.6282 11.8371 13.795 10.727C13.8278 10.5164 13.836 10.1418 13.836 8.96055V7.46484H8.23057H2.62236L2.63057 4.68125L2.63877 1.90039L2.70166 1.72266C2.86572 1.24414 3.19111 0.89961 3.65596 0.719141C3.81729 0.65625 3.88291 0.645312 4.17002 0.645312C4.54463 0.642578 4.71416 0.683594 4.97939 0.844922C5.40869 1.10742 5.6876 1.54219 5.73408 2.02891L5.75049 2.20664L5.63018 2.22578C4.99307 2.32148 4.31494 2.87656 4.05518 3.50547C3.92393 3.82812 3.90479 3.93203 3.89111 4.4625L3.87744 4.97656H6.05674H8.23604L8.22236 4.4625C8.20869 3.93203 8.18955 3.82812 8.0583 3.50547C7.89697 3.11445 7.54697 2.7125 7.16416 2.48555C6.96729 2.36797 6.55713 2.21484 6.44229 2.21484C6.38213 2.21484 6.37666 2.20117 6.36025 2.00977C6.27002 1.01445 5.55908 0.226954 4.58018 0.0410156C4.38604 0.00273418 4.0415 -0.00820255 3.88291 0.0191412ZM6.50791 2.87109C7.09854 3.04336 7.59893 3.6668 7.60166 4.23008V4.34766H6.05674H4.51182V4.24375C4.51182 3.96758 4.67861 3.57109 4.90283 3.31953C5.30479 2.87109 5.91729 2.69883 6.50791 2.87109ZM13.2017 9.39805L13.1907 10.7051L13.1169 10.9512C12.9638 11.4406 12.6739 11.8836 12.313 12.1734C12.0614 12.373 11.9493 12.4414 11.6759 12.559C11.2138 12.7531 11.4735 12.7449 6.89072 12.7367L2.77549 12.7285L2.54307 12.6492C1.6708 12.3566 1.08564 11.7414 0.839551 10.8582C0.784863 10.6641 0.782129 10.5738 0.771191 9.3707L0.762988 8.09375H6.98643H13.2099L13.2017 9.39805Z" fill="#1E1E1E"/>
</g>
<defs>
<clipPath id="clip0_502_2708">
<rect width="14" height="14" fill="white"/>
</clipPath>
</defs>
</svg>
