<svg width="18" height="18" viewBox="0 0 18 18" fill="none" xmlns="http://www.w3.org/2000/svg">
<g id="instagram-icon">
<g clip-path="url(#clip0_1550_3120)">
<path id="Vector" d="M12.75 1.5H5.25C3.17893 1.5 1.5 3.17893 1.5 5.25V12.75C1.5 14.8211 3.17893 16.5 5.25 16.5H12.75C14.8211 16.5 16.5 14.8211 16.5 12.75V5.25C16.5 3.17893 14.8211 1.5 12.75 1.5Z" stroke="#9F9F9F" stroke-width="2" stroke-linecap="round" stroke-linejoin="round"/>
<path id="Vector_2" d="M12 8.5275C12.0926 9.15169 11.9859 9.78916 11.6953 10.3493C11.4047 10.9094 10.9449 11.3636 10.3812 11.6473C9.81757 11.931 9.17883 12.0297 8.55583 11.9295C7.93284 11.8292 7.35731 11.5351 6.91112 11.0889C6.46493 10.6427 6.17079 10.0672 6.07054 9.44416C5.9703 8.82117 6.06904 8.18242 6.35274 7.61878C6.63643 7.05514 7.09063 6.59531 7.65073 6.30468C8.21083 6.01406 8.84831 5.90744 9.47249 6C10.1092 6.09441 10.6986 6.3911 11.1538 6.84623C11.6089 7.30136 11.9056 7.89081 12 8.5275Z" stroke="#9F9F9F" stroke-width="2" stroke-linecap="round" stroke-linejoin="round"/>
<path id="Vector_3" d="M13.125 4.875H13.1333" stroke="#9F9F9F" stroke-width="2" stroke-linecap="round" stroke-linejoin="round"/>
</g>
</g>
<defs>
<clipPath id="clip0_1550_3120">
<rect width="18" height="18" rx="4" fill="white"/>
</clipPath>
</defs>
</svg>
