<svg width="13" height="15" viewBox="0 0 13 15" fill="none" xmlns="http://www.w3.org/2000/svg">
<path d="M9.66329 0.00365782C9.31516 0.0307446 8.94735 0.132591 8.53718 0.315697C8.31872 0.413209 8.04082 0.57898 7.84094 0.730666C7.54557 0.954944 7.29591 1.22112 7.07187 1.55085C6.69403 2.10667 6.48932 2.73761 6.50269 3.30427C6.50455 3.3783 6.51495 3.54191 6.5183 3.54552C6.52127 3.54877 6.62678 3.5531 6.69849 3.55347C7.37727 3.55419 8.03265 3.25985 8.63378 2.68488C8.97113 2.36201 9.22563 2.02722 9.41771 1.65378C9.6748 1.15322 9.78478 0.625208 9.74317 0.0899742C9.74019 0.0513306 9.73759 0.0152149 9.73759 0.00943637C9.73759 4.62532e-05 9.73685 -0.000314951 9.72013 4.62532e-05C9.7101 0.000407457 9.68484 0.00221324 9.66329 0.00365782Z" fill="white"/>
<path d="M9.32324 3.54845C9.31321 3.54917 9.27792 3.55134 9.24522 3.5535C8.93685 3.57373 8.58873 3.64235 8.20494 3.75936C8.09608 3.79259 8.00617 3.82293 7.80741 3.89299C7.17729 4.11583 6.81171 4.22851 6.65827 4.24693C6.51188 4.26498 6.15262 4.16783 5.49315 3.932C5.06218 3.77814 4.78502 3.69761 4.49708 3.64199C4.26005 3.59612 4.0832 3.58095 3.88295 3.5889C3.32714 3.61093 2.83746 3.73083 2.35336 3.96342C1.68498 4.28485 1.12657 4.77674 0.737584 5.38746C0.475285 5.79954 0.297322 6.20439 0.174718 6.66667C-0.00138675 7.33084 -0.0448556 8.09108 0.0465405 8.90765C0.191808 10.2082 0.714178 11.642 1.45166 12.7648C1.69167 13.1299 2.07695 13.6356 2.35708 13.953C2.60414 14.2329 2.86273 14.4702 3.10014 14.6356C3.39922 14.844 3.69421 14.9606 4.01038 14.9957C4.06388 15.0014 4.25299 15.0014 4.31318 14.9957C4.62192 14.965 4.93957 14.8783 5.42033 14.6934C5.85168 14.5276 6.19869 14.4435 6.59436 14.4091C6.66755 14.4026 6.97555 14.4026 7.04577 14.4091C7.20627 14.4236 7.34262 14.4442 7.49161 14.4763C7.71861 14.5251 7.93001 14.5908 8.2068 14.6988C8.44569 14.792 8.6348 14.853 8.82985 14.9007C9.17872 14.9856 9.45291 15.0043 9.72264 14.9621C10.0719 14.9075 10.4167 14.7454 10.7313 14.4875C10.9985 14.269 11.211 14.0455 11.5101 13.6695C11.9176 13.1567 12.2037 12.7265 12.4783 12.2137C12.5823 12.019 12.7012 11.7727 12.7562 11.638C12.8461 11.4173 13.0047 11.0009 12.9999 10.9962C12.9988 10.9951 12.9694 10.9814 12.9345 10.9662C12.6198 10.8279 12.3419 10.6549 12.0934 10.4422C12.0272 10.3859 11.8337 10.2042 11.7701 10.1396C11.2474 9.6054 10.9528 8.96218 10.8878 8.21062C10.8673 7.97623 10.8707 7.68766 10.897 7.46519C10.9387 7.10873 11.0334 6.78441 11.1861 6.47707C11.4562 5.93353 11.921 5.45572 12.5474 5.07759C12.5715 5.06314 12.592 5.04978 12.5931 5.04797C12.599 5.03894 12.4259 4.82586 12.3263 4.71896C11.7215 4.07104 10.9115 3.69363 9.86753 3.57373C9.70369 3.55495 9.62009 3.54953 9.47743 3.54809C9.40275 3.54773 9.33365 3.54773 9.32324 3.54845Z" fill="white"/>
</svg>
